# xmcd
#
# Track frame offsets: 
#        150
#        23207
#        50957
#        73757
#        97907
#        141332
#        165482
#        179357
#
# Disc length: 2572 seconds
#
# Revision: 8
# Processed by: cddbd v1.5.2PL0 Copyright (c) Steve Scherf et al.
# Submitted via: ExactAudioCopy v0.99pb5
#
DISCID=6f0a0a08
DTITLE=Morrison, Van - T.B. Sheets
DYEAR=1973
DGENRE=Folk
TTITLE0=He ain't give you none
TTITLE1=Beside you
TTITLE2=It's all right
TTITLE3=Madame George
TTITLE4=T.B. sheets
TTITLE5=Who drove the red sports car?
TTITLE6=Ro Ro Rosey
TTITLE7=Brown eyed girl
EXTD=
EXTT0=
EXTT1=
EXTT2=
EXTT3=
EXTT4=
EXTT5=
EXTT6=
EXTT7=
PLAYORDER=
